<svg id="Calque_1" data-name="Calque 1" xmlns="http://www.w3.org/2000/svg" viewBox="0 0 631.1 278.09"><defs><style>.cls-1{font-size:226.34px;fill:#e8e6e6;font-family:High-Spirited, High Spirited;font-style:italic;}.cls-2{font-size:32px;fill:#e2e1e1;font-family:FuturaLT-Light, Futura LT;font-weight:300;}.cls-3{fill:#fff;}.cls-4{fill:#eeeded;}</style></defs><text class="cls-1" transform="translate(0 186.95)">Gaudineto</text><text class="cls-2" transform="translate(231.62 253.03)">Moustiers-Sainte Marie</text><g id="Calque_2" data-name="Calque 2"><g id="Calque_1-2" data-name="Calque 1-2"><path class="cls-3" d="M532.41,494.41a0,0,0,0,1,0,0l.06,0Zm-3.78-5.65-2.79-.15,1.83-1.83-3.52-2.73,4.74-.16-.45-2.57,1.95,1.28,1.82-4.73,2.11,4.61,2.37-.94-.93,2.17,4.33.08L537,486.73l1.82,1.81h-2.49l1.15,4.52-3.84-2.32-1.25,2.41-1-2.29-3.78,2.74Z" transform="translate(-128.32 -361.34)"/><path class="cls-4" d="M532.25,479.16l1.42,3.1.39.86.88-.35.82-.32-.16.38L535,484.2l1.49,0,2.36,0L537,486l-.75.71.73.72.6.6h-1.92l.32,1.25.69,2.71-2.35-1.41-.91-.55L533,491l-.53,1-.35-.78-.5-1.12-1,.72-2.22,1.61.65-3,.25-1.15-1.17-.06-1.1-.06.64-.64.8-.8-.89-.69-2-1.54,2.78-.09,1.15,0-.2-1.13-.15-.87.47.31,1,.67.45-1.15,1.17-3m-.07-2.58-2,5.26-2-1.34a.32.32,0,0,0,0-.14.55.55,0,0,0-.55-.55h0a.56.56,0,1,0,0,1.11h0a.54.54,0,0,0,.28-.08l.46,2.57-5.54.19,4.15,3.23-1.73,1.73a.57.57,0,0,0-.35-.12.54.54,0,0,0-.43.21.56.56,0,0,0,.09.78.54.54,0,0,0,.34.12.55.55,0,0,0,.44-.21.47.47,0,0,0,.11-.26l2.64.15-1.2,5.54,4.34-3.14,1,2.23a.54.54,0,0,0-.25.74.55.55,0,0,0,.5.31.53.53,0,0,0,.24-.06.55.55,0,0,0,.25-.74.5.5,0,0,0-.3-.27l1.24-2.4,4.43,2.68L537,489h2.28a.55.55,0,0,0,.53.42l.14,0a.55.55,0,0,0-.14-1.09h0a.54.54,0,0,0-.34.12l-1.73-1.74,3.6-3.41-4.8-.09.86-2a.48.48,0,0,0,.2,0,.57.57,0,0,0,.52-.36.56.56,0,0,0-.33-.71.43.43,0,0,0-.19,0,.55.55,0,0,0-.52.36.65.65,0,0,0,0,.2.47.47,0,0,0,0,.17l-2.47,1-2.4-5.26Z" transform="translate(-128.32 -361.34)"/></g></g></svg>